Notorious (Alfred Hitchcock, 1946) 720p AMIABLE
  
http://www.imdb.com/title/tt0038787/


SYNOPSIS: In Notorious, a brilliant allegory of love and betrayal, Hitchcock fuses two of his favorite elements: suspense and romance. A beautiful woman with a tainted past (Ingrid Bergman) is enlisted by American agent Devlin (Cary Grant) to spy on a ring of Nazis in post-war Rio. Her espionage work becomes life-threatening after she marries the most debonair of the Nazi ring, Alex (Claude Rains). Only Devlin can rescue her, but to do so he must face his role in her desperate situation and acknowledge that heΓΓé¼Γäós loved her all along. Stunning performances, Ben HechtΓΓé¼Γäós excellent script, and HitchcockΓΓé¼Γäós direction at its best make Notorious a perfect film.

General
Complete name                            : Notorious.1946.720p.BluRay.X264-AMIABLE.mkv
Format                                   : Matroska
Format version                           : Version 2
File size                                : 4.37 GiB
Duration                                 : 1h 41mn
Overall bit rate                         : 6 154 Kbps
Writing application                      : x264.exe
Writing library                          : mkv2rls v1.4 (date: 2011 mar 29)

Video
ID                                       : 1
Format                                   : AVC
Format/Info                              : Advanced Video Codec
Format profile                           : High@L4.1
Format settings, CABAC                   : Yes
Format settings, ReFrames                : 5 frames
Codec ID                                 : V_MPEG4/ISO/AVC
Duration                                 : 1h 41mn
Bit rate                                 : 4 643 Kbps
Width                                    : 992 pixels
Height                                   : 720 pixels
Display aspect ratio                     : 1.378
Frame rate                               : 23.976 fps
Color space                              : YUV
Chroma subsampling                       : 4:2:0
Bit depth                                : 8 bits
Scan type                                : Progressive
Bits/(Pixel*Frame)                       : 0.271
Stream size                              : 3.21 GiB (73%)
Writing library                          : x264 core 120 r2146 bcd41db

Language                                 : English
Default                                  : Yes
Forced                                   : No

Audio
ID                                       : 2
Format                                   : DTS
Format/Info                              : Digital Theater Systems
Codec ID                                 : A_DTS
Duration                                 : 1h 41mn
Bit rate mode                            : Constant
Bit rate                                 : 1 510 Kbps
Channel(s)                               : 2 channels
Channel positions                        : Front: L R
Sampling rate                            : 48.0 KHz
Bit depth                                : 24 bits
Compression mode                         : Lossy
Stream size                              : 1.07 GiB (25%)
Language                                 : English
Default                                  : Yes
Forced                                   : No

Text
ID                                       : 3
Format                                   : UTF-8
Codec ID                                 : S_TEXT/UTF8
Codec ID/Info                            : UTF-8 Plain Text
Language                                 : English
Default                                  : No
Forced                                   : No